<?xml version="1.0" standalone="no"?> <!DOCTYPE svg PUBLIC "-//W3C//DTD SVG 1.0//EN" "http://www.w3.org/TR/2001/REC-SVG-20010904/DTD/svg10.dtd" > <svg xmlns="http://www.w3.org/2000/svg" width="100%" height="100%">
<defs >
<font id="stagsanslight" horiz-adv-x="1011" ><font-face
    font-family="Stag Sans Light"
    units-per-em="2048"
    panose-1="2 11 3 3 4 0 0 2 0 4"
    ascent="1638"
    descent="-409"
    alphabetic="0" />
<missing-glyph horiz-adv-x="1024" />
<glyph unicode=" " glyph-name="space" horiz-adv-x="493" />
<glyph unicode="!" glyph-name="exclam" horiz-adv-x="464" d="M190 295L178 1360V1434H289V1360L276 295H190ZM265 -8T231 -8T176 14T154 70Q154 103 176 126T231 150T287 127T311 70Q311 36 288 14Z" />
<glyph unicode="&quot;" glyph-name="quotedbl" horiz-adv-x="436" d="M76 1075L57 1341V1434H164V1341L145 1075H76ZM291 1075L272 1341V1434H379V1341L362 1075H291Z" />
<glyph unicode="#" glyph-name="numbersign" horiz-adv-x="935" d="M100 872V969H285L352 1434H428L358 969H639L709 1434H784L715 969H887V872H702L664 616H838V518H651L575 0H500L575 518H295L219 0H143L221 518H47V616H233L272 872H100ZM346 872L309 616H590L629
872H346Z" />
<glyph unicode="$" glyph-name="dollar" horiz-adv-x="1019" d="M547 1565V1442Q749 1435 893 1329V1237H844Q781 1291 712 1321T547 1356V784Q635 760 694 738T808 685T894 614T943 521T961 395Q961 206 850 106T545 -6V-209H459V-8Q212 0 47 127V223H96Q233
88 459 78V702Q360 730 294 759T176 832T100 936T76 1079Q76 1231 177 1328T461 1440V1565H547ZM856 387Q856 444 842 487T804 558T738 609T654 647T545 680V80Q692 91 774 167T856 387ZM178 1085Q178 1021 196 975T255 898T342 847T461 807V1354Q319 1340 249
1268T178 1085Z" />
<glyph unicode="%" glyph-name="percent" horiz-adv-x="1472" d="M379 805Q476 805 534 878T592 1083Q592 1218 534 1293T379 1368Q281 1368 224 1293T166 1083Q166 951 223 878T379 805ZM379 731Q246 731 157 824T68 1087Q68 1256 157 1349T379 1442Q511 1442
599 1349T688 1087Q688 917 600 824T379 731ZM182 -70L1192 1493H1290L281 -70H182ZM1094 66Q1191 66 1249 140T1307 346Q1307 479 1249 554T1094 629Q996 629 939 554T881 346Q881 214 938 140T1094 66ZM1094 -8Q961 -8 872 85T782 348Q782 519 871 612T1094 705Q1226
705 1314 612T1403 348Q1403 178 1315 85T1094 -8Z" />
<glyph unicode="&amp;" glyph-name="ampersand" horiz-adv-x="1314" d="M1149 0L983 184Q909 96 799 44T553 -8Q325 -8 200 108T74 408Q74 491 100 561T174 682T279 770T408 834Q357 895 327 960T297 1114Q297 1261 398 1351T664 1442Q847 1442 958 1350V1270H907Q815
1356 666 1356Q547 1356 475 1289T403 1112Q403 1039 442 969T569 799L977 342Q1095 565 1120 795H1212V758Q1192 632 1147 504T1038 270L1239 45V0H1149ZM565 80Q788 80 924 250L463 770Q329 715 258 634T186 410Q186 346 208 289T274 184T393 108T565 80Z" />
<glyph unicode="&apos;" glyph-name="quotesingle" horiz-adv-x="221" d="M76 1075L57 1341V1434H164V1341L145 1075H76Z" />
<glyph unicode="(" glyph-name="parenleft" horiz-adv-x="561" d="M526 1518V1448Q478 1422 435 1389T341 1293T253 1155T191 962T166 709Q166 574 190 459T251 267T338 127T433 30T526 -31V-100H494Q437 -76 382 -37T267 70T163 225T90 437T61 709Q61 832 80
941T134 1130T211 1277T304 1390T401 1467T494 1518H526Z" />
<glyph unicode=")" glyph-name="parenright" horiz-adv-x="561" d="M35 1448V1518H68Q125 1494 180 1456T294 1349T398 1194T471 982T500 709Q500 563 472 437T399 225T295 71T180 -37T68 -100H35V-31Q84 -5 128 29T223 127T310 267T370 459T395 709Q395 845 370
961T309 1154T221 1293T126 1388T35 1448Z" />
<glyph unicode="*" glyph-name="asterisk" horiz-adv-x="733" d="M414 1364L397 1147L590 1233L653 1255L680 1163L616 1141L414 1094L555 934L594 879L522 823L483 879L367 1061L250 879L209 823L139 879L178 934L319 1094L115 1141L53 1163L80 1255L143 1233L336
1147L319 1364V1434H414V1364Z" />
<glyph unicode="+" glyph-name="plus" horiz-adv-x="952" d="M887 662H528V276H428V662H68V754H428V1139H528V754H887V662Z" />
<glyph unicode="," glyph-name="comma" horiz-adv-x="294" d="M47 -102Q88 -95 110 -75T133 -27Q133 -19 132 -13T126 -2T120 4T110 11T100 16Q68 38 68 78Q68 109 89 129T145 150T203 123T227 41Q227 -59 181 -107T47 -166V-102Z" />
<glyph unicode="-" glyph-name="hyphen" horiz-adv-x="466" d="M51 565V655H416V565H51Z" />
<glyph unicode="." glyph-name="period" horiz-adv-x="294" d="M147 -8Q113 -8 92 14T70 70Q70 103 92 126T147 150Q179 150 203 126T227 70Q227 37 204 15T147 -8Z" />
<glyph unicode="/" glyph-name="slash" horiz-adv-x="626" d="M600 1518V1489L111 -100H23V-72L508 1518H600Z" />
<glyph unicode="0" glyph-name="zero" horiz-adv-x="1310" d="M775 -8T655 -8T432 37T250 169T124 397T78 717Q78 894 124 1034T249 1262T432 1396T655 1442Q775 1442 878 1396T1061 1262T1187 1034T1233 717Q1233 538 1187 397T1061 169T878 37ZM443 80T655 80T993
241T1120 715Q1120 1028 993 1191T655 1354Q443 1354 316 1191T188 715Q188 403 315 242Z" />
<glyph unicode="1" glyph-name="one" horiz-adv-x="602" d="M406 0H295V1315L70 1184H23V1255L332 1434H406V0Z" />
<glyph unicode="2" glyph-name="two" horiz-adv-x="1026" d="M942 92V0H49V92L481 520Q551 590 597 640T691 748T766 855T810 957T827 1063Q827 1200 748 1276T516 1352Q306 1352 162 1204H109V1282Q184 1352 289 1397T522 1442Q723 1442 829 1342T936 1063Q936
1002 915 939T864 822T779 702T678 586T559 465L178 92H942Z" />
<glyph unicode="3" glyph-name="three" horiz-adv-x="1003" d="M451 -8Q204 -8 43 127V211H98Q152 155 241 118T444 80Q628 80 724 167T821 412Q821 489 793 545T716 634T604 682T467 698H338V791H451Q608 791 699 862T791 1073Q791 1209 712 1281T475 1354Q269
1354 143 1241H92V1315Q241 1442 479 1442Q681 1442 788 1350T895 1079Q895 949 828 868T647 752V748Q779 717 855 634T932 410Q932 210 808 101T451 -8Z" />
<glyph unicode="4" glyph-name="four" horiz-adv-x="1105" d="M881 0H770V371H41V475L780 1434H881V457H1065V371H881V0ZM139 461V457H770V1274H766L139 461Z" />
<glyph unicode="5" glyph-name="five" horiz-adv-x="1034" d="M961 485Q961 260 816 126T436 -8Q208 -8 47 119V205H100Q223 78 436 78Q628 78 739 185T850 479Q850 659 757 747T508 836Q396 836 314 793T182 686H102V1434H889V1339H190V801H197Q244 848 330 886T530
924Q619 924 695 898T831 820T926 682T961 485Z" />
<glyph unicode="6" glyph-name="six" horiz-adv-x="1163" d="M610 -8Q497 -8 403 33T235 156T120 373T78 686Q78 869 127 1013T263 1251T469 1393T729 1442Q901 1442 1018 1380V1290H967Q933 1317 870 1336T725 1356Q606 1356 508 1313T338 1186T227 975T186 686V678Q264
766 388 819T645 872Q737 872 816 848T958 774T1057 644T1094 457Q1094 244 959 118T610 -8ZM623 786Q497 786 380 729T190 580Q200 449 235 351T327 194T453 107T610 78Q782 78 883 177T985 455Q985 624 887 705T623 786Z" />
<glyph unicode="7" glyph-name="seven" horiz-adv-x="1015" d="M254 0V59L885 1335V1339H59V1434H971V1329L348 0H254Z" />
<glyph unicode="8" glyph-name="eight" horiz-adv-x="1134" d="M804 -8T567 -8T199 101T68 393Q68 531 155 631T375 764V768Q271 799 202 884T133 1085Q133 1244 251 1343T567 1442Q762 1442 880 1343T999 1085Q999 970 931 885T760 768V764Q897 731 982 632T1067
393Q1067 211 936 102ZM567 76Q758 76 859 164T961 397T858 632T567 723Q378 723 276 633T174 397Q174 252 274 164T567 76ZM567 809Q720 809 806 883T893 1081Q893 1207 807 1282T567 1358Q413 1358 328 1283T242 1081Q242 957 327 883T567 809Z" />
<glyph unicode="9" glyph-name="nine" horiz-adv-x="1157" d="M426 -8Q248 -8 129 53V143H180Q213 117 281 98T430 78Q690 78 829 249T969 748V756Q892 667 768 614T512 561Q420 561 341 585T199 659T100 789T63 975Q63 1190 197 1316T547 1442Q660 1442 754 1401T922
1278T1037 1061T1079 748Q1079 381 905 187T426 -8ZM535 647Q658 647 774 703T965 850Q946 1108 834 1232T547 1356Q376 1356 275 1257T174 979Q174 809 272 728T535 647Z" />
<glyph unicode=":" glyph-name="colon" horiz-adv-x="307" d="M154 629Q121 629 99 651T76 707Q76 741 98 763T154 786Q186 786 208 764T231 707Q231 675 209 652T154 629ZM154 -8Q120 -8 98 14T76 70Q76 103 98 126T154 150Q186 150 208 127T231 70Q231 36 209
14T154 -8Z" />
<glyph unicode=";" glyph-name="semicolon" horiz-adv-x="307" d="M53 -102Q93 -95 116 -75T139 -27Q139 -19 138 -13T132 -2T126 4T116 11T106 16Q74 38 74 78Q74 109 95 129T150 150Q185 150 208 123T231 41Q231 -59 186 -107T53 -166V-102ZM154 629Q121 629
99 651T76 707Q76 741 98 763T154 786Q186 786 208 764T231 707Q231 675 209 652T154 629Z" />
<glyph unicode="&lt;" glyph-name="less" horiz-adv-x="927" d="M59 633V717L823 1120H858V1034L164 678V674L858 315V229H823L59 633Z" />
<glyph unicode="=" glyph-name="equal" horiz-adv-x="974" d="M913 770H59V860H913V770ZM913 428H59V518H913V428Z" />
<glyph unicode="&gt;" glyph-name="greater" horiz-adv-x="927" d="M866 715V631L104 229H68V315L762 672V674L68 1032V1120H104L866 715Z" />
<glyph unicode="?" glyph-name="question" horiz-adv-x="880" d="M297 295Q290 350 290 394T297 478T318 548T356 615T407 681T475 754Q484 763 524 802T579 856T623 909T666 973T690 1040T702 1120Q702 1233 634 1294T438 1356Q221 1356 127 1233H74V1319Q213
1442 440 1442Q616 1442 714 1359T813 1116Q813 1081 807 1048T791 989T763 934T730 884T689 836T645 790T595 742T545 694Q521 671 505 655T469 616T439 576T415 534T396 486T385 432T380 368T385 295H297ZM348 -8Q314 -8 292 14T270 70Q270 103 292 126T348 150Q380
150 404 126T428 70Q428 37 405 15T348 -8Z" />
<glyph unicode="@" glyph-name="at" horiz-adv-x="1759" d="M870 -244Q742 -244 627 -218T409 -135T232 8T114 220T70 502Q70 635 105 754T203 965T349 1129T529 1249T727 1321T932 1346Q1058 1346 1171 1319T1379 1237T1543 1104T1651 919T1690 686Q1690 576
1664 485T1593 333T1491 228T1370 166T1241 147Q1133 147 1086 197T1042 326Q882 143 707 143Q601 143 537 211T473 406Q473 502 510 600T610 777T767 906T963 956Q1090 956 1174 885Q1187 920 1201 935T1241 950H1274L1145 408Q1098 223 1257 223Q1307 223 1354
238T1447 289T1525 377T1579 509T1599 686Q1599 961 1416 1114T932 1268Q820 1268 711 1238T502 1144T327 991T207 776T162 502Q162 328 217 197T370 -13T593 -130T870 -168Q1026 -168 1165 -129T1391 -20H1430V-88Q1334 -161 1186 -202T870 -244ZM721 221Q755
221 786 228T850 253T903 284T957 329T1004 375T1053 426L1145 819Q1108 847 1068 862T965 877Q859 877 766 808T620 631T567 406Q567 314 610 268T721 221Z" />
<glyph unicode="A" glyph-name="A" horiz-adv-x="1253" d="M61 0V45L565 1434H694L1192 45V0H1096L934 449H313L154 0H61ZM623 1313L344 539H903L627 1313H623Z" />
<glyph unicode="B" glyph-name="B" horiz-adv-x="1187" d="M176 0V1434H582Q1036 1434 1036 1077Q1036 1007 1017 953T962 862T883 801T782 758V756Q855 740 909 716T1010 651T1081 546T1106 395Q1106 196 974 98T614 0H176ZM285 90H612Q786 90 889 166T993 399Q993
707 588 707H285V90ZM285 797H575Q651 797 712 811T822 857T899 943T926 1073Q926 1343 580 1343H285V797Z" />
<glyph unicode="C" glyph-name="C" horiz-adv-x="1261" d="M717 -8Q437 -8 268 183T98 721Q98 893 148 1031T285 1259T485 1395T729 1442Q886 1442 980 1407T1165 1298V1210H1114Q1045 1279 959 1316T735 1354Q623 1354 528 1314T362 1196T251 998T211 725Q211
414 347 247T719 80Q867 80 966 125T1143 250H1190V168Q1003 -8 717 -8Z" />
<glyph unicode="D" glyph-name="D" horiz-adv-x="1366" d="M176 0V1434H559Q922 1434 1101 1264T1280 719Q1280 345 1100 173T557 0H176ZM285 90H557Q873 90 1020 236T1167 717Q1167 1051 1020 1197T557 1343H285V90Z" />
<glyph unicode="E" glyph-name="E" horiz-adv-x="1128" d="M176 0V1434H1030V1341H285V784H848V694H285V90H1059V0H176Z" />
<glyph unicode="F" glyph-name="F" horiz-adv-x="1099" d="M285 0H176V1434H1030V1341H285V748H838V657H285V0Z" />
<glyph unicode="G" glyph-name="G" horiz-adv-x="1372" d="M745 -8Q436 -8 261 178T86 721Q86 897 138 1036T281 1263T493 1396T756 1442Q1005 1442 1176 1329V1235H1122Q1001 1354 756 1354Q635 1354 535 1316T361 1203T245 1005T203 725Q203 406 344 243T745
80Q958 80 1110 160V612H793V702H1219V109Q1019 -8 745 -8Z" />
<glyph unicode="H" glyph-name="H" horiz-adv-x="1398" d="M285 0H176V1434H285V784H1114V1434H1223V0H1114V694H285V0Z" />
<glyph unicode="I" glyph-name="I" horiz-adv-x="471" d="M291 0H180V1434H291V0Z" />
<glyph unicode="J" glyph-name="J" horiz-adv-x="841" d="M315 -10Q146 -10 35 66V154H82Q158 78 309 78Q563 78 563 330V1434H674V328Q674 166 584 78T315 -10Z" />
<glyph unicode="K" glyph-name="K" horiz-adv-x="1265" d="M176 0V1434H285V610L1049 1434H1135V1391L629 848L1186 43V0H1090L557 772L285 483V0H176Z" />
<glyph unicode="L" glyph-name="L" horiz-adv-x="1103" d="M1032 0H176V1434H285V90H1032V0Z" />
<glyph unicode="M" glyph-name="M" horiz-adv-x="1662" d="M176 0V1434H346L834 166H838L1323 1434H1489V0H1378V1303H1368L866 0H786L287 1303H279V0H176Z" />
<glyph unicode="N" glyph-name="N" horiz-adv-x="1388" d="M176 0V1434H311L1108 197H1110V1434H1214V0H1110L283 1288H279V0H176Z" />
<glyph unicode="O" glyph-name="O" horiz-adv-x="1458" d="M731 -8Q598 -8 482 40T277 177T137 406T86 717Q86 855 119 972T211 1175T352 1321T529 1412T731 1442Q836 1442 931 1412T1107 1322T1246 1176T1339 972T1372 717Q1372 545 1321 406T1182 177T979 40T731
-8ZM731 78Q843 78 939 119T1107 238T1219 439T1260 715T1220 992T1107 1194T939 1314T731 1356Q617 1356 521 1315T352 1194T240 992T199 715T239 439T352 239T520 119T731 78Z" />
<glyph unicode="P" glyph-name="P" horiz-adv-x="1130" d="M176 0V1434H549Q793 1434 925 1338T1057 1024Q1057 910 1023 828T921 696T761 623T547 600H285V0H176ZM285 1343V688H547Q748 688 847 764T946 1020Q946 1196 845 1269T547 1343H285Z" />
<glyph unicode="Q" glyph-name="Q" horiz-adv-x="1466" d="M1335 -186L635 -10Q86 129 86 717Q86 889 137 1028T276 1256T481 1394T731 1442Q863 1442 978 1394T1182 1257T1321 1029T1372 717Q1372 421 1229 236T858 14V10L1397 -96V-186H1335ZM733 76Q846 76
941 117T1108 236T1220 437T1260 715T1220 993T1107 1195T939 1315T731 1356Q617 1356 521 1315T352 1196T240 994T199 715Q199 561 240 438T353 237T522 117T733 76Z" />
<glyph unicode="R" glyph-name="R" horiz-adv-x="1228" d="M1042 0L688 655Q629 649 563 649H291V0H180V1434H563Q1055 1434 1055 1044Q1055 754 795 678L1137 43V0H1042ZM291 1343V737H559Q752 737 848 804T944 1040Q944 1125 917 1185T836 1279T716 1328T559 1343H291Z" />
<glyph unicode="S" glyph-name="S" horiz-adv-x="1044" d="M489 -8Q218 -8 47 127V223H96Q239 80 487 80Q660 80 759 155T858 387Q858 422 851 451T836 504T807 548T772 583T725 613T675 637T615 658T553 676T485 694Q403 716 345 738T234 791T150 861T100 954T82
1077Q82 1238 196 1340T514 1442Q746 1442 897 1329V1237H846Q784 1294 707 1324T516 1354Q349 1354 268 1280T186 1085Q186 1028 203 984T245 913T317 862T405 825T516 793Q612 768 675 747T798 693T891 621T945 526T965 395Q965 194 837 93T489 -8Z" />
<glyph unicode="T" glyph-name="T" horiz-adv-x="1136" d="M625 0H514V1343H45V1434H1092V1343H625V0Z" />
<glyph unicode="U" glyph-name="U" horiz-adv-x="1380" d="M702 82Q792 82 862 101T991 163T1080 287T1112 481V1434H1217V485Q1217 354 1178 257T1068 103T904 19T696 -8Q582 -8 489 19T322 102T207 256T166 485V1434H274V481Q274 370 307 290T401 166T536 102T702 82Z" />
<glyph unicode="V" glyph-name="V" horiz-adv-x="1245" d="M565 0L59 1389V1434H154L623 131H627L1096 1434H1186V1389L680 0H565Z" />
<glyph unicode="W" glyph-name="W" horiz-adv-x="1775" d="M422 0L63 1391V1434H164L483 174H489L844 1434H938L1294 174H1300L1618 1434H1712V1391L1354 0H1235L891 1243H887L541 0H422Z" />
<glyph unicode="X" glyph-name="X" horiz-adv-x="1226" d="M72 0V45L543 745L102 1389V1434H197L618 817L1030 1434H1116V1389L684 743L1155 45V0H1061L608 674L158 0H72Z" />
<glyph unicode="Y" glyph-name="Y" horiz-adv-x="1126" d="M621 0H510V600L53 1389V1434H147L567 702H569L989 1434H1075V1389L621 604V0Z" />
<glyph unicode="Z" glyph-name="Z" horiz-adv-x="1150" d="M68 0V94L961 1343V1346H123V1434H1077V1337L186 90V86H1055V0H68Z" />
<glyph unicode="[" glyph-name="bracketleft" horiz-adv-x="559" d="M156 -100V1518H512V1436H258V-18H512V-100H156Z" />
<glyph unicode="\" glyph-name="backslash" horiz-adv-x="626" d="M29 1489V1518H117L606 -72V-100H514L29 1489Z" />
<glyph unicode="]" glyph-name="bracketright" horiz-adv-x="559" d="M403 1518V-100H49V-18H301V1436H49V1518H403Z" />
<glyph unicode="^" glyph-name="asciicircum" horiz-adv-x="806" d="M55 956V991L358 1434H453L752 991V956H666L408 1335H403L139 956H55Z" />
<glyph unicode="_" glyph-name="underscore" horiz-adv-x="671" d="M676 -332H-4V-252H676V-332Z" />
<glyph unicode="`" glyph-name="grave" horiz-adv-x="847" d="M471 1174H410L217 1393V1434H317L471 1206V1174Z" />
<glyph unicode="a" glyph-name="a" horiz-adv-x="1009" d="M768 104V145Q694 68 611 29T403 -10Q250 -10 155 71T59 299Q59 454 175 533T487 612Q640 612 768 580V772Q768 997 506 997Q295 997 174 903H131V987Q299 1079 510 1079Q870 1079 870 778V0H842Q797
0 783 20T768 104ZM418 70Q538 70 617 114T768 244V506Q618 539 494 539Q344 539 254 482T164 307Q164 186 233 128T418 70Z" />
<glyph unicode="b" glyph-name="b" horiz-adv-x="1134" d="M250 1335V877Q423 1079 655 1079Q719 1079 776 1064T887 1009T979 911T1041 759T1065 547Q1065 425 1038 328T968 169T864 66T740 9T608 -8Q387 -8 248 117Q242 65 223 33T174 0H147V1434H184Q228 1434
239 1417T250 1335ZM639 995Q432 995 250 776V213Q315 142 395 107T588 72Q644 72 694 84T795 130T881 215T939 349T961 539Q961 644 942 725T891 857T817 939T730 983T639 995Z" />
<glyph unicode="c" glyph-name="c" horiz-adv-x="983" d="M567 -8Q333 -8 201 138T68 537Q68 787 207 933T573 1079Q780 1079 907 977V895H854Q752 997 571 997Q391 997 282 875T172 537Q172 318 278 196T571 74Q769 74 879 197H926V119Q795 -8 567 -8Z" />
<glyph unicode="d" glyph-name="d" horiz-adv-x="1138" d="M883 119V184Q814 98 713 45T492 -8Q407 -8 335 20T201 108T105 274T70 524Q70 644 96 740T167 899T271 1002T394 1061T526 1079Q753 1079 883 946V1434H918Q962 1434 974 1417T987 1335V0H934Q902 0
894 21T883 119ZM502 72Q624 72 715 129T883 289V854Q816 926 736 962T543 999Q485 999 435 986T335 940T252 856T196 720T174 528Q174 401 202 309T278 167T382 95T502 72Z" />
<glyph unicode="e" glyph-name="e" horiz-adv-x="1042" d="M172 530Q172 306 275 191T578 76Q799 76 909 186H954V111Q805 -8 567 -8T199 135T68 530Q68 779 200 929T541 1079Q746 1079 862 956T979 580Q979 568 978 549L977 530H172ZM541 1001Q389 1001 291 901T174
608H877Q867 1001 541 1001Z" />
<glyph unicode="f" glyph-name="f" horiz-adv-x="552" d="M25 989V1067H166V1174Q166 1308 234 1374T416 1440Q497 1440 547 1427V1356H440Q352 1356 310 1315T268 1167V1067H526V989H268V0H166V989H25Z" />
<glyph unicode="g" glyph-name="g" horiz-adv-x="1134" d="M987 1067V12Q987 -101 925 -182T762 -302T535 -340Q405 -340 299 -314T127 -246V-166H168Q221 -208 315 -234T522 -260Q599 -260 662 -245T776 -197T855 -110T883 18V197Q811 111 710 60T487 8Q423 8
365 24T252 80T158 179T94 328T70 532Q70 649 96 743T167 899T271 1002T395 1061T528 1079Q753 1079 883 946Q887 984 892 1007T912 1048T954 1067H987ZM502 88Q723 88 883 303V852Q815 925 735 962T547 999Q490 999 440 987T340 943T255 860T197 727T174 537Q174
435 193 356T243 227T317 145T406 101T502 88Z" />
<glyph unicode="h" glyph-name="h" horiz-adv-x="1132" d="M250 1335V897Q479 1079 719 1079Q995 1079 995 795V0H893V782Q893 901 837 947T680 993Q487 993 250 813V0H147V1434H184Q228 1434 239 1418T250 1335Z" />
<glyph unicode="i" glyph-name="i" horiz-adv-x="407" d="M254 0H152V1067H184Q231 1067 242 1049T254 956V0ZM234 1231T205 1231T156 1251T135 1300Q135 1328 155 1349T205 1370T254 1349T274 1300Q274 1271 254 1251Z" />
<glyph unicode="j" glyph-name="j" horiz-adv-x="407" d="M-47 -328V-258H10Q152 -258 152 -106V1067H182Q230 1067 242 1049T254 956V-111Q254 -218 200 -277T39 -336Q-15 -336 -47 -328ZM234 1231T205 1231T156 1251T135 1300Q135 1328 155 1349T205 1370T254
1349T274 1300Q274 1271 254 1251Z" />
<glyph unicode="k" glyph-name="k" horiz-adv-x="974" d="M250 1335V465L803 1067H883V1026L510 623L915 39V0H825L442 553L250 346V0H147V1434H184Q228 1434 239 1417T250 1335Z" />
<glyph unicode="l" glyph-name="l" horiz-adv-x="401" d="M252 0H150V1434H186Q230 1434 241 1417T252 1335V0Z" />
<glyph unicode="m" glyph-name="m" horiz-adv-x="1761" d="M250 961V905Q466 1079 676 1079Q770 1079 839 1036T930 903Q1137 1079 1360 1079Q1478 1079 1551 1016T1624 817V0H1522V791Q1522 903 1472 948T1323 993Q1220 993 1131 948T938 821V0H836V791Q836 902
785 947T639 993Q532 993 440 947T250 819V0H147V1067H195Q230 1067 240 1049T250 961Z" />
<glyph unicode="n" glyph-name="n" horiz-adv-x="1132" d="M250 961V897Q479 1079 719 1079Q995 1079 995 795V0H893V782Q893 901 837 947T680 993Q487 993 250 813V0H147V1067H195Q230 1067 240 1049T250 961Z" />
<glyph unicode="o" glyph-name="o" horiz-adv-x="1128" d="M563 -8Q339 -8 204 138T68 535Q68 784 204 931T563 1079Q789 1079 925 932T1061 535Q1061 284 925 138T563 -8ZM563 72Q747 72 851 194T956 535Q956 752 851 875T563 999Q382 999 277 876T172 535Q172
317 276 195T563 72Z" />
<glyph unicode="p" glyph-name="p" horiz-adv-x="1134" d="M250 961V877Q423 1079 655 1079Q719 1079 776 1064T887 1010T979 914T1041 762T1065 551Q1065 429 1038 332T967 174T863 72T739 15T606 -2Q389 -2 250 123V-332H147V1067H195Q230 1067 240 1049T250
961ZM639 995Q432 995 250 776V221Q315 150 395 115T588 80Q645 80 695 92T795 136T880 219T938 351T961 541Q961 646 942 727T891 858T817 939T730 983T639 995Z" />
<glyph unicode="q" glyph-name="q" horiz-adv-x="1134" d="M883 -332V190Q814 104 713 51T492 -2Q425 -2 366 14T252 70T157 168T94 319T70 526Q70 646 96 742T167 900T271 1003T394 1061T526 1079Q760 1079 885 944Q896 1067 954 1067H987V-332H883ZM502 80Q624
80 715 136T883 295V852Q814 925 735 962T543 999Q485 999 435 987T335 941T252 857T196 723T174 532Q174 429 193 349T243 219T317 137T406 93T502 80Z" />
<glyph unicode="r" glyph-name="r" horiz-adv-x="702" d="M250 950V883Q411 1075 600 1075Q637 1075 649 1069V985Q623 987 604 987Q421 987 250 786V0H147V1067H195Q230 1067 240 1047T250 950Z" />
<glyph unicode="s" glyph-name="s" horiz-adv-x="874" d="M416 -8Q208 -8 72 92V176H113Q226 72 412 72Q557 72 629 130T702 301Q702 395 641 440T416 512Q251 539 167 603T82 797Q82 932 179 1005T440 1079Q627 1079 750 999V915H709Q660 956 599 977T442 999Q178
999 178 805Q178 714 239 671T457 600Q635 572 719 508T803 309Q803 158 707 75T416 -8Z" />
<glyph unicode="t" glyph-name="t" horiz-adv-x="608" d="M25 989V1067H166V1364H268V1067H553V989H268V244Q268 150 312 113T453 76H575V4Q511 -8 418 -8Q292 -8 229 49T166 231V989H25Z" />
<glyph unicode="u" glyph-name="u" horiz-adv-x="1124" d="M870 115V156Q772 82 658 35T426 -12Q137 -12 137 266V1067H242V276Q242 162 294 117T440 72Q638 72 870 242V1067H973V0H926Q891 0 881 20T870 115Z" />
<glyph unicode="v" glyph-name="v" horiz-adv-x="1017" d="M463 0L53 1030V1067H145L512 139H516L881 1067H965V1030L559 0H463Z" />
<glyph unicode="w" glyph-name="w" horiz-adv-x="1480" d="M367 0L57 1028V1067H150L418 156H422L705 1067H791L1067 156H1071L1339 1067H1423V1028L1114 0H1024L745 903H741L461 0H367Z" />
<glyph unicode="x" glyph-name="x" horiz-adv-x="980" d="M57 0V41L414 555L72 1028V1067H164L487 621L791 1067H874V1028L553 557L926 41V0H834L481 492L141 0H57Z" />
<glyph unicode="y" glyph-name="y" horiz-adv-x="1032" d="M315 -332V-299L477 74L51 1036V1067H145L526 195H528L889 1067H981V1036L406 -332H315Z" />
<glyph unicode="z" glyph-name="z" horiz-adv-x="937" d="M70 0V80L778 987H113V1067H893V985L184 80H881V0H70Z" />
<glyph unicode="{" glyph-name="braceleft" horiz-adv-x="626" d="M233 137V563Q233 684 104 684H47V766H104Q233 766 233 887V1284Q233 1518 471 1518H580V1436H481Q407 1436 373 1398T338 1284V891Q338 757 213 727V725Q338 695 338 559V135Q338 -18 481 -18H580V-100H471Q233
-100 233 137Z" />
<glyph unicode="|" glyph-name="bar" horiz-adv-x="419" d="M254 1518V-100H166V1518H254Z" />
<glyph unicode="}" glyph-name="braceright" horiz-adv-x="626" d="M393 563V137Q393 -100 158 -100H49V-18H145Q289 -18 289 135V559Q289 695 414 725V727Q289 757 289 891V1284Q289 1360 255 1398T145 1436H49V1518H158Q393 1518 393 1284V887Q393 766 524 766H580V684H524Q393
684 393 563Z" />
<glyph unicode="~" glyph-name="asciitilde" horiz-adv-x="671" d="M53 485V526Q65 590 105 632T205 674Q257 674 344 633T461 592Q524 592 541 684H618V645Q605 579 565 539T463 498Q415 498 328 539T211 580Q143 580 131 485H53Z" />
</font>
</defs>
</svg>
